<svg width="12" height="3" viewBox="0 0 12 3" fill="none" xmlns="http://www.w3.org/2000/svg">
<path d="M0.104688 1.136C0.104688 0.912 0.190021 0.714667 0.360687 0.544C0.542021 0.373333 0.760688 0.288 1.01669 0.288C1.24069 0.288 1.43802 0.373333 1.60869 0.544C1.77935 0.714667 1.86469 0.912 1.86469 1.136C1.86469 1.392 1.78469 1.61067 1.62469 1.792C1.46469 1.96267 1.26202 2.048 1.01669 2.048C0.760688 2.048 0.542021 1.96267 0.360687 1.792C0.190021 1.61067 0.104688 1.392 0.104688 1.136ZM5.12031 1.136C5.12031 0.912 5.20565 0.714667 5.37631 0.544C5.55765 0.373333 5.77631 0.288 6.03231 0.288C6.25631 0.288 6.45365 0.373333 6.62431 0.544C6.79498 0.714667 6.88031 0.912 6.88031 1.136C6.88031 1.392 6.80031 1.61067 6.64031 1.792C6.48031 1.96267 6.27765 2.048 6.03231 2.048C5.77631 2.048 5.55765 1.96267 5.37631 1.792C5.20565 1.61067 5.12031 1.392 5.12031 1.136ZM10.1359 1.136C10.1359 0.912 10.2213 0.714667 10.3919 0.544C10.5733 0.373333 10.7919 0.288 11.0479 0.288C11.2719 0.288 11.4693 0.373333 11.6399 0.544C11.8106 0.714667 11.8959 0.912 11.8959 1.136C11.8959 1.392 11.8159 1.61067 11.6559 1.792C11.4959 1.96267 11.2933 2.048 11.0479 2.048C10.7919 2.048 10.5733 1.96267 10.3919 1.792C10.2213 1.61067 10.1359 1.392 10.1359 1.136Z" fill="currentColor"/>
</svg>
